<svg version="1.1" id="Layer_1" xmlns="http://www.w3.org/2000/svg" xmlns:xlink="http://www.w3.org/1999/xlink" x="0px" y="0px"
	 width="100%" viewBox="0 0 222 227" enable-background="new 0 0 222 227" xml:space="preserve">
<path fill="#FEFEFE" opacity="1.000000" stroke="none" 
	d="
M131.000000,228.000000 
	C87.333336,228.000000 44.166672,228.000000 1.000006,228.000000 
	C1.000004,152.333344 1.000004,76.666679 1.000002,1.000016 
	C74.999992,1.000011 148.999985,1.000011 222.999969,1.000005 
	C222.999985,76.666649 222.999985,152.333298 223.000000,227.999969 
	C192.500000,228.000000 162.000000,228.000000 131.000000,228.000000 
M148.785599,36.899261 
	C139.009094,33.179810 128.899246,31.643213 118.438095,31.786470 
	C72.540077,32.415012 36.421467,74.330330 43.443352,118.933846 
	C48.701981,152.337006 74.224464,177.530594 108.536308,183.187958 
	C140.987549,188.538544 174.502640,172.083847 189.639359,143.124619 
	C209.227234,105.649605 195.355972,55.777557 148.785599,36.899261 
z"/>
<path fill="#302887" opacity="1.000000" stroke="none" 
	d="
M149.148560,37.034851 
	C195.355972,55.777557 209.227234,105.649605 189.639359,143.124619 
	C174.502640,172.083847 140.987549,188.538544 108.536308,183.187958 
	C74.224464,177.530594 48.701981,152.337006 43.443352,118.933846 
	C36.421467,74.330330 72.540077,32.415012 118.438095,31.786470 
	C128.899246,31.643213 139.009094,33.179810 149.148560,37.034851 
M184.603821,73.981140 
	C178.360336,62.211895 168.935532,53.471783 157.748413,46.655693 
	C122.412750,25.126383 73.732201,39.216850 55.243980,76.168732 
	C34.222439,118.183884 58.362896,167.736847 105.343262,177.434647 
	C135.234802,183.604935 160.682373,174.271729 179.136520,149.862473 
	C196.831955,126.456795 198.030502,100.874092 184.603821,73.981140 
z"/>
<path fill="#D7D4E4" opacity="1.000000" stroke="none" 
	d="
M184.782898,74.306755 
	C198.030502,100.874092 196.831955,126.456795 179.136520,149.862473 
	C160.682373,174.271729 135.234802,183.604935 105.343262,177.434647 
	C58.362896,167.736847 34.222439,118.183884 55.243980,76.168732 
	C73.732201,39.216850 122.412750,25.126383 157.748413,46.655693 
	C168.935532,53.471783 178.360336,62.211895 184.782898,74.306755 
M171.528732,152.651703 
	C172.090668,152.226395 172.652618,151.801086 173.792252,151.000931 
	C177.972641,143.364227 182.153015,135.727539 186.673019,127.657799 
	C186.781723,127.122475 186.890442,126.587143 187.398926,125.574692 
	C187.398834,124.983429 187.398758,124.392159 187.707413,123.075203 
	C188.109070,120.713326 188.510742,118.351448 189.359695,115.556885 
	C189.298325,114.973671 189.236969,114.390450 189.369293,112.943161 
	C189.328598,109.691628 189.287903,106.440094 189.578125,102.569542 
	C189.359207,101.717133 189.140274,100.864716 188.883163,99.195084 
	C188.054367,95.709686 187.225571,92.224281 186.418930,87.967171 
	C180.384247,68.781868 167.885498,55.290394 149.883957,46.744492 
	C148.370499,46.026009 146.414917,46.238907 144.107910,45.540764 
	C140.899719,44.712250 137.691513,43.883736 133.978897,42.323071 
	C125.662010,42.236881 117.345123,42.150696 108.227715,41.972591 
	C106.156860,42.297985 104.086006,42.623375 101.357323,42.993931 
	C101.033058,43.262741 100.708794,43.531551 99.804535,43.525810 
	C99.204987,43.724583 98.605446,43.923355 97.410240,44.119217 
	C96.949295,44.438591 96.488350,44.757965 95.282463,44.973755 
	C80.167732,50.778358 68.455940,60.635311 60.442158,74.698074 
	C59.040558,77.157631 58.641106,80.188271 57.946934,83.472923 
	C57.960453,83.835602 57.973972,84.198280 57.427204,84.792526 
	C57.245766,84.879745 57.064331,84.966965 56.152943,85.120811 
	C54.999126,88.975151 53.845314,92.829483 52.286823,97.243118 
	C52.266441,98.142181 52.246063,99.041252 51.997322,100.859436 
	C52.077339,105.924606 52.157352,110.989784 52.036575,116.710617 
	C52.262707,117.572433 52.488838,118.434258 52.745300,119.990585 
	C53.031235,121.106743 53.317173,122.222908 53.537128,124.003601 
	C53.848824,125.074738 54.160519,126.145874 54.585342,127.986008 
	C55.738667,129.153931 56.891991,130.321869 58.018032,132.102509 
	C58.256493,133.061874 58.494953,134.021225 58.356964,135.346146 
	C58.671913,136.676819 58.626354,138.265060 59.362194,139.295044 
	C63.215782,144.688934 66.692490,150.524628 71.363205,155.128281 
	C83.116112,166.712402 96.896637,174.579987 114.737106,175.398529 
	C122.519478,174.700577 130.301849,174.002609 138.854614,173.164795 
	C148.602783,170.709229 157.217911,166.019714 164.947678,159.691803 
	C165.965714,158.858383 166.377289,157.284119 167.000702,156.002289 
	C167.000702,156.002289 167.056274,156.067612 167.677078,156.649704 
	C168.807114,155.119080 169.937164,153.588455 171.001007,152.001953 
	C171.001007,152.001953 171.052536,152.071655 171.528732,152.651703 
z"/>
<path fill="#F76549" opacity="1.000000" stroke="none" 
	d="
M58.733414,134.980591 
	C58.494953,134.021225 58.256493,133.061874 58.026146,131.386002 
	C57.616096,129.133850 57.197937,127.598213 56.911762,125.783951 
	C57.512589,124.840424 57.981426,124.175537 58.805889,123.529541 
	C60.110878,123.553612 61.060246,123.558784 62.361511,123.765152 
	C99.381142,124.012894 136.048874,124.062370 172.716614,124.086922 
	C173.523987,124.087456 174.331543,123.803352 175.424438,123.702591 
	C176.093155,123.718109 176.476440,123.683083 177.258484,123.812073 
	C180.670822,124.406204 185.395630,122.890755 183.267212,129.313263 
	C183.075562,130.020798 183.011185,130.437378 182.717438,131.065033 
	C182.115677,132.181473 181.743256,133.086807 181.216003,134.285309 
	C180.710052,135.387177 180.358932,136.195877 179.835938,137.097473 
	C179.446030,137.373505 179.358200,137.605789 179.266724,138.142914 
	C179.089096,138.585907 179.045303,138.773254 178.827118,139.094833 
	C178.420166,139.438187 178.308365,139.699005 178.231323,140.062683 
	C178.145325,140.113815 178.102753,140.309372 177.861664,140.420044 
	C177.453293,141.022873 177.286011,141.515030 177.033417,142.147980 
	C176.948120,142.288757 176.930573,142.617477 176.711975,142.805298 
	C176.308273,143.321854 176.123184,143.650574 175.967850,143.988251 
	C175.997589,143.997192 175.973221,143.940048 175.745834,144.044434 
	C175.246658,144.375366 175.097122,144.665039 175.035461,145.017990 
	C175.001068,145.018158 175.022736,145.083450 174.845016,145.186310 
	C174.443207,145.477371 174.331467,145.717773 174.229401,146.068054 
	C174.126740,146.125732 174.028091,146.339569 173.879074,146.350311 
	C173.508865,146.466202 173.446777,146.631165 173.324066,147.095367 
	C172.690475,147.828430 172.276596,148.322083 171.577240,149.055481 
	C171.212006,150.220718 171.132263,151.146179 171.052536,152.071655 
	C171.052536,152.071655 171.001007,152.001953 170.736115,151.840195 
	C169.927811,152.070557 169.384415,152.462677 168.626984,152.965118 
	C168.145691,153.273788 167.961411,153.531494 167.570770,154.039444 
	C167.206375,154.842758 167.131317,155.455185 167.056274,156.067612 
	C167.056274,156.067612 167.000702,156.002289 166.687134,155.869415 
	C156.911804,160.834549 147.450043,165.932541 137.984467,171.015442 
	C137.980667,171.000351 137.957596,171.019302 137.855392,170.885437 
	C137.470734,170.824615 137.188278,170.897644 136.522873,170.944962 
	C133.086639,171.625763 130.033340,172.332291 126.656830,172.797821 
	C118.059723,171.927811 109.295647,172.825439 101.612007,170.358231 
	C84.586678,164.891434 70.855095,154.399048 61.992371,138.321060 
	C61.268452,137.007797 59.836414,136.084885 58.733414,134.980591 
z"/>
<path fill="#F76549" opacity="1.000000" stroke="none" 
	d="
M57.987492,84.560959 
	C57.973972,84.198280 57.960453,83.835602 58.216660,83.153473 
	C59.386532,81.699692 60.480988,80.670151 61.157726,79.415329 
	C71.567505,60.113434 87.422844,48.216743 109.432312,44.085106 
	C116.336723,44.060394 122.817596,44.063286 129.294800,43.910385 
	C131.030060,43.869423 132.754120,43.353245 134.483322,43.055222 
	C137.691513,43.883736 140.899719,44.712250 144.530518,46.116096 
	C146.578751,47.735619 148.129303,48.926933 149.841797,49.800926 
	C164.721939,57.395210 175.802872,68.563599 182.063019,84.181259 
	C182.644531,85.632004 182.074158,87.544472 181.653000,89.184372 
	C180.491806,89.178703 179.716217,89.231224 178.735367,89.003441 
	C177.033005,88.891266 175.535904,89.059395 173.655151,89.166458 
	C172.499344,89.156609 171.727188,89.207832 170.740356,88.985825 
	C169.030609,88.893669 167.535507,89.074738 165.635986,89.188477 
	C164.142517,89.164505 163.053482,89.207870 161.676086,88.957352 
	C153.271729,88.858253 145.155731,89.053047 136.609344,89.181450 
	C134.440628,89.159508 132.702332,89.203941 130.696594,88.963760 
	C127.633499,88.868523 124.837852,89.057907 121.577858,89.179550 
	C116.395988,89.156242 111.678459,89.200684 106.672897,88.952278 
	C100.603424,88.853111 94.821983,89.046791 88.594864,89.173950 
	C85.762657,89.252808 83.376122,89.398170 80.579544,89.399887 
	C78.451164,89.354156 76.732826,89.452072 74.633453,89.373077 
	C73.163025,89.316322 72.073631,89.436485 70.621681,89.412727 
	C69.483307,89.286644 68.707489,89.304489 67.774940,89.041748 
	C66.381584,88.921890 65.144974,89.082634 63.498154,89.180023 
	C61.705151,89.166901 60.322350,89.217125 58.768814,88.900887 
	C58.394547,87.209938 58.191017,85.885452 57.987492,84.560959 
z"/>
<path fill="#1B0C7C" opacity="1.000000" stroke="none" 
	d="
M67.931679,89.322327 
	C68.707489,89.304489 69.483307,89.286644 70.718124,89.695190 
	C72.456253,89.931053 73.735367,89.740517 75.014488,89.549988 
	C76.732826,89.452072 78.451164,89.354156 80.726944,89.739693 
	C82.535027,90.481888 83.785362,90.964874 85.036362,90.966583 
	C116.290535,91.009308 147.544800,91.013367 178.798965,90.962807 
	C180.205048,90.960533 181.610199,90.382141 183.342590,89.908897 
	C184.578506,89.410088 185.487640,89.074478 186.396774,88.738876 
	C187.225571,92.224281 188.054367,95.709686 188.682220,99.773094 
	C188.736588,101.296921 188.991898,102.242737 189.247223,103.188560 
	C189.287903,106.440094 189.328598,109.691628 189.066071,113.492744 
	C188.812683,114.691406 188.862534,115.340492 188.912415,115.989571 
	C188.510742,118.351448 188.109070,120.713326 187.319458,123.472336 
	C186.645340,124.002884 186.356613,124.130508 185.745468,124.045700 
	C182.601456,122.378769 179.783646,120.634758 176.859741,123.648048 
	C176.476440,123.683083 176.093155,123.718109 175.260925,123.358566 
	C172.893707,122.692436 170.975784,122.187164 169.057068,122.184196 
	C137.603317,122.135506 106.149094,122.212425 74.696487,122.017265 
	C72.486298,122.003555 70.287910,120.084755 68.036987,118.661705 
	C68.280533,115.525307 68.571114,112.779037 69.162170,109.788864 
	C69.618790,107.987602 69.774948,106.430237 70.275024,104.729378 
	C71.082733,104.717140 71.546524,104.848404 72.011017,105.207855 
	C72.093102,105.757309 72.288429,105.977470 72.697861,106.109406 
	C72.798012,106.122269 72.975662,106.026215 72.861420,106.475647 
	C72.732025,109.257866 72.451851,111.630699 72.796112,113.909180 
	C73.020744,115.395905 74.152092,116.745636 74.877258,118.156738 
	C75.654205,116.807632 76.505333,115.493782 77.171509,114.092041 
	C77.436989,113.533401 77.293610,112.780457 77.614151,112.109970 
	C78.445587,112.112503 78.999229,112.121033 79.760071,112.420479 
	C81.497925,113.904709 82.919998,115.283272 84.579872,116.256081 
	C89.265938,119.002472 92.734222,117.460533 94.637375,112.085159 
	C95.346886,112.023979 95.750305,111.962769 96.413406,112.141739 
	C99.262016,113.575798 102.510979,114.156090 104.306473,116.087540 
	C108.413300,120.505310 108.528488,117.594948 108.960831,113.781334 
	C109.002815,112.879921 108.911514,112.358582 108.786522,111.405975 
	C109.502548,108.828476 106.904350,105.494110 111.035385,104.976707 
	C111.067123,105.976379 111.097305,106.546646 111.062187,107.062950 
	C110.996887,107.008980 111.132881,107.108231 110.833160,107.224808 
	C110.776909,108.165184 111.020378,108.988991 111.494354,110.061089 
	C112.795967,110.823265 113.867073,111.337143 115.254379,111.813217 
	C116.081970,111.208031 116.593346,110.640640 117.402786,110.059364 
	C118.098618,110.051529 118.496361,110.057571 118.964432,110.474380 
	C119.714622,113.202148 120.394501,115.519135 121.449974,117.926666 
	C122.543785,116.342827 123.261993,114.668457 124.299194,113.054863 
	C125.049805,113.116386 125.481415,113.117126 126.119400,113.394463 
	C129.185349,116.881866 132.209976,118.732498 136.200943,114.994049 
	C137.140411,115.881927 137.810791,116.612350 138.524475,117.388107 
	C138.567780,117.433441 138.641037,117.535210 138.730865,117.771729 
	C139.670425,117.871696 140.520172,117.735146 141.461639,117.524628 
	C141.553375,117.450668 141.622894,117.225471 141.867172,116.888351 
	C142.357178,112.662941 142.602890,108.774658 143.122757,105.005203 
	C143.851456,105.673370 144.306015,106.222702 144.570297,106.911194 
	C144.510025,107.441895 144.640060,107.833435 144.730072,108.543243 
	C144.717224,109.501328 144.744415,110.141129 144.534760,111.076447 
	C144.515732,113.265900 144.733566,115.159843 145.166382,117.373840 
	C146.531082,116.922974 148.143753,116.393364 148.705429,115.315872 
	C149.314774,114.146935 148.945572,112.467896 149.320312,111.026794 
	C150.271118,111.071991 150.904694,111.101692 151.733582,111.446106 
	C153.896515,112.909935 155.882126,114.029816 157.823090,115.222336 
	C158.615097,115.708946 159.310364,116.352989 160.074829,117.300308 
	C162.883453,120.188431 164.650360,119.081306 164.909073,115.859177 
	C165.205948,112.161568 164.839005,108.410660 165.075409,104.571808 
	C166.504181,104.464394 167.617981,104.468094 168.664551,104.624123 
	C168.597321,104.776451 168.752136,105.071373 168.692688,105.322815 
	C168.418945,106.043961 168.204636,106.513657 167.805664,107.286148 
	C164.777649,111.640999 167.249359,114.367798 170.159851,117.311600 
	C176.633118,120.844040 174.576233,114.530655 176.210419,112.374435 
	C176.197464,112.286194 176.350449,112.194458 176.598999,112.209763 
	C177.339798,112.226456 177.832031,112.227837 178.402679,112.640701 
	C178.617584,114.436279 178.754074,115.820381 178.934631,117.532097 
	C179.963943,118.063797 180.991287,118.508171 181.912552,118.346832 
	C182.253357,118.287148 182.344742,116.803246 182.501328,115.577545 
	C182.485199,114.136703 182.517639,113.087212 182.753662,111.713425 
	C182.943832,109.569633 182.930405,107.750145 182.923965,105.670441 
	C182.868210,105.248444 182.805466,105.086655 182.890198,104.771561 
	C183.037689,104.618248 183.232071,104.239769 183.551941,104.063400 
	C183.543915,102.997437 183.216003,102.107849 182.434830,101.126129 
	C171.324844,101.032608 160.668137,101.031212 149.951614,100.749908 
	C149.621216,99.976189 149.350647,99.482391 149.121582,98.604614 
	C148.366013,98.036575 147.572525,97.718513 146.771118,97.697151 
	C145.242798,97.656410 143.709961,97.784897 142.162842,97.541519 
	C141.347763,97.157372 140.548828,97.074837 139.749893,96.992302 
	C140.007645,97.802017 140.265396,98.611732 140.461090,99.774590 
	C139.698334,100.416626 139.020294,100.863480 138.293091,100.967850 
	C134.588104,101.499626 130.870392,101.942841 126.803909,102.340912 
	C125.981895,102.154861 125.513130,102.044960 124.782059,101.593773 
	C116.610565,101.154503 108.700066,100.925476 100.792625,101.004280 
	C95.456757,101.057449 90.391899,101.082306 86.188141,96.817360 
	C84.712234,95.319969 82.084114,94.958267 79.778442,93.878860 
	C78.499405,93.898949 77.424049,94.118156 76.009750,94.416061 
	C74.471718,96.340599 73.272629,98.186447 71.839844,100.057755 
	C71.283852,100.194328 71.074165,100.413277 70.521118,100.828300 
	C66.951088,100.930939 63.814060,100.727768 60.732822,101.053062 
	C59.229927,101.211723 57.831070,102.355843 56.280521,103.205063 
	C56.397388,103.589203 56.618855,103.822166 57.128990,104.130707 
	C57.811638,104.251213 58.205616,104.296135 58.697075,104.681564 
	C58.957756,105.192719 59.120956,105.363365 59.075989,105.716568 
	C59.243504,107.601814 59.619194,109.304512 59.987747,111.254562 
	C59.980610,111.501900 59.984337,111.996819 59.766373,112.135788 
	C59.395439,112.574654 59.242470,112.874557 59.056953,113.513626 
	C59.723476,115.225327 60.179821,116.825180 61.191250,117.905174 
	C62.163944,118.943802 63.711056,119.444473 64.941483,120.525726 
	C63.921333,121.767937 62.965469,122.665939 62.009605,123.563950 
	C61.060246,123.558784 60.110878,123.553612 58.338676,123.360695 
	C56.211597,123.228317 54.907356,123.283691 53.603111,123.339066 
	C53.317173,122.222908 53.031235,121.106743 52.831383,119.303680 
	C52.690765,117.762840 52.464066,116.908897 52.237366,116.054955 
	C52.157352,110.989784 52.077339,105.924606 52.351463,100.149109 
	C52.700905,98.520470 52.696201,97.602142 52.691498,96.683823 
	C53.845314,92.829483 54.999126,88.975151 56.515617,85.477295 
	C57.239960,87.252335 57.601627,88.670891 58.223534,90.342453 
	C60.338070,90.454811 62.192356,90.314163 64.389572,90.129776 
	C65.798889,89.831467 66.865288,89.576897 67.931679,89.322327 
M69.446014,97.079552 
	C69.567932,95.838913 69.956711,94.530350 69.667549,93.394341 
	C69.565842,92.994751 67.297653,92.533333 66.900665,92.946854 
	C66.010315,93.874313 65.672913,95.332581 65.110359,96.574722 
	C66.307899,96.806686 67.505432,97.038658 69.446014,97.079552 
z"/>
<path fill="#563373" opacity="1.000000" stroke="none" 
	d="
M58.545189,135.163361 
	C59.836414,136.084885 61.268452,137.007797 61.992371,138.321060 
	C70.855095,154.399048 84.586678,164.891434 101.612007,170.358231 
	C109.295647,172.825439 118.059723,171.927811 126.363724,173.084595 
	C122.254204,174.104080 118.114563,174.595779 113.974922,175.087479 
	C96.896637,174.579987 83.116112,166.712402 71.363205,155.128281 
	C66.692490,150.524628 63.215782,144.688934 59.362194,139.295044 
	C58.626354,138.265060 58.671913,136.676819 58.545189,135.163361 
z"/>
<path fill="#5E3C79" opacity="1.000000" stroke="none" 
	d="
M109.007401,44.054260 
	C87.422844,48.216743 71.567505,60.113434 61.157726,79.415329 
	C60.480988,80.670151 59.386532,81.699692 58.132599,82.894592 
	C58.641106,80.188271 59.040558,77.157631 60.442158,74.698074 
	C68.455940,60.635311 80.167732,50.778358 95.819763,45.246445 
	C96.906677,45.053467 97.456284,44.587799 98.005898,44.122128 
	C98.605446,43.923355 99.204987,43.724583 100.419250,43.636055 
	C101.361031,43.480453 101.688095,43.214607 102.015152,42.948765 
	C104.086006,42.623375 106.156860,42.297985 108.609299,42.349815 
	C108.996384,43.169445 109.001892,43.611851 109.007401,44.054260 
z"/>
<path fill="#613674" opacity="1.000000" stroke="none" 
	d="
M186.407852,88.353027 
	C185.487640,89.074478 184.578506,89.410088 183.139526,89.817825 
	C182.320175,89.761559 182.129822,89.545753 182.038605,89.242554 
	C182.074158,87.544472 182.644531,85.632004 182.063019,84.181259 
	C175.802872,68.563599 164.721939,57.395210 149.841797,49.800926 
	C148.129303,48.926933 146.578751,47.735619 144.808929,46.355263 
	C146.414917,46.238907 148.370499,46.026009 149.883957,46.744492 
	C167.885498,55.290394 180.384247,68.781868 186.407852,88.353027 
z"/>
<path fill="#543072" opacity="1.000000" stroke="none" 
	d="
M137.988266,171.030533 
	C147.450043,165.932541 156.911804,160.834549 166.721649,155.894775 
	C166.377289,157.284119 165.965714,158.858383 164.947678,159.691803 
	C157.217911,166.019714 148.602783,170.709229 138.444122,172.855789 
	C138.018494,172.041367 138.003387,171.535950 137.988266,171.030533 
z"/>
<path fill="#694782" opacity="1.000000" stroke="none" 
	d="
M182.946808,130.853958 
	C183.011185,130.437378 183.075562,130.020798 183.569763,129.266098 
	C184.777542,128.648926 185.555466,128.369888 186.333389,128.090851 
	C182.153015,135.727539 177.972641,143.364227 173.434891,150.814575 
	C172.672592,150.024063 172.267670,149.419907 171.862732,148.815735 
	C172.276596,148.322083 172.690475,147.828430 173.408630,147.017944 
	C173.712906,146.701126 174.028091,146.339569 174.028091,146.339569 
	C174.028091,146.339569 174.126740,146.125732 174.375641,145.940369 
	C174.811020,145.563049 174.943756,145.339188 175.022736,145.083450 
	C175.022736,145.083450 175.001068,145.018158 175.246765,144.895752 
	C175.753616,144.553802 175.913864,144.276031 175.973221,143.940048 
	C175.973221,143.940048 175.997589,143.997192 176.236511,143.852478 
	C176.627151,143.344345 176.778870,142.980911 176.930573,142.617477 
	C176.930573,142.617477 176.948120,142.288757 177.240417,141.997284 
	C177.722717,141.240326 177.912735,140.774841 178.102753,140.309372 
	C178.102753,140.309372 178.145325,140.113815 178.389374,139.920990 
	C178.832077,139.508759 178.954773,139.252899 179.001511,138.960587 
	C179.045303,138.773254 179.089096,138.585907 179.406204,138.028397 
	C179.846436,137.469254 179.955856,137.251373 180.007812,137.004593 
	C180.358932,136.195877 180.710052,135.387177 181.490204,134.239136 
	C182.261749,132.884521 182.604279,131.869247 182.946808,130.853958 
z"/>
<path fill="#573971" opacity="1.000000" stroke="none" 
	d="
M137.984467,171.015442 
	C138.003387,171.535950 138.018494,172.041367 138.058914,172.925720 
	C130.301849,174.002609 122.519478,174.700577 114.356018,175.243011 
	C118.114563,174.595779 122.254204,174.104080 126.686951,173.325592 
	C130.033340,172.332291 133.086639,171.625763 136.786285,170.954346 
	C137.607620,170.999390 137.782608,171.009338 137.957596,171.019302 
	C137.957596,171.019302 137.980667,171.000351 137.984467,171.015442 
z"/>
<path fill="#6A2858" opacity="1.000000" stroke="none" 
	d="
M109.432312,44.085106 
	C109.001892,43.611851 108.996384,43.169445 109.009560,42.395771 
	C117.345123,42.150696 125.662010,42.236881 134.231110,42.689148 
	C132.754120,43.353245 131.030060,43.869423 129.294800,43.910385 
	C122.817596,44.063286 116.336723,44.060394 109.432312,44.085106 
z"/>
<path fill="#65366F" opacity="1.000000" stroke="none" 
	d="
M186.503204,127.874329 
	C185.555466,128.369888 184.777542,128.648926 183.697052,128.975159 
	C185.395630,122.890755 180.670822,124.406204 177.258484,123.812073 
	C179.783646,120.634758 182.601456,122.378769 185.764450,124.308563 
	C186.401917,125.202652 186.700531,125.627235 186.999146,126.051819 
	C186.890442,126.587143 186.781723,127.122475 186.503204,127.874329 
z"/>
<path fill="#613674" opacity="1.000000" stroke="none" 
	d="
M53.570122,123.671333 
	C54.907356,123.283691 56.211597,123.228317 57.983055,123.341797 
	C57.981426,124.175537 57.512589,124.840424 56.625862,125.929535 
	C55.629391,126.641502 55.050800,126.929260 54.472214,127.217010 
	C54.160519,126.145874 53.848824,125.074738 53.570122,123.671333 
z"/>
<path fill="#65366F" opacity="1.000000" stroke="none" 
	d="
M54.528778,127.601509 
	C55.050800,126.929260 55.629391,126.641502 56.493874,126.208160 
	C57.197937,127.598213 57.616096,129.133850 58.039787,131.079651 
	C56.891991,130.321869 55.738667,129.153931 54.528778,127.601509 
z"/>
<path fill="#543072" opacity="1.000000" stroke="none" 
	d="
M168.841003,152.854797 
	C169.384415,152.462677 169.927811,152.070557 170.769226,151.868134 
	C169.937164,153.588455 168.807114,155.119080 167.366669,156.358658 
	C167.131317,155.455185 167.206375,154.842758 167.815842,153.969727 
	C168.513840,153.424347 168.677414,153.139572 168.841003,152.854797 
z"/>
<path fill="#613674" opacity="1.000000" stroke="none" 
	d="
M57.963295,90.089455 
	C57.601627,88.670891 57.239960,87.252335 56.880596,85.443977 
	C57.064331,84.966965 57.245766,84.879745 57.707348,84.676743 
	C58.191017,85.885452 58.394547,87.209938 58.664169,89.094254 
	C58.502254,89.847885 58.246601,89.993011 57.963295,90.089455 
z"/>
<path fill="#543072" opacity="1.000000" stroke="none" 
	d="
M171.577240,149.055481 
	C172.267670,149.419907 172.672592,150.024063 173.146042,151.002014 
	C172.652618,151.801086 172.090668,152.226395 171.290634,152.361679 
	C171.132263,151.146179 171.212006,150.220718 171.577240,149.055481 
z"/>
<path fill="#554E9A" opacity="1.000000" stroke="none" 
	d="
M189.412674,102.879051 
	C188.991898,102.242737 188.736588,101.296921 188.701324,100.181702 
	C189.140274,100.864716 189.359207,101.717133 189.412674,102.879051 
z"/>
<path fill="#554E9A" opacity="1.000000" stroke="none" 
	d="
M189.136047,115.773224 
	C188.862534,115.340492 188.812683,114.691406 188.969223,113.924782 
	C189.236969,114.390450 189.298325,114.973671 189.136047,115.773224 
z"/>
<path fill="#61427E" opacity="1.000000" stroke="none" 
	d="
M97.708069,44.120674 
	C97.456284,44.587799 96.906677,45.053467 96.192230,45.298241 
	C96.488350,44.757965 96.949295,44.438591 97.708069,44.120674 
z"/>
<path fill="#554E9A" opacity="1.000000" stroke="none" 
	d="
M187.199036,125.813255 
	C186.700531,125.627235 186.401917,125.202652 186.084320,124.515198 
	C186.356613,124.130508 186.645340,124.002884 187.165085,123.835175 
	C187.398758,124.392159 187.398834,124.983429 187.199036,125.813255 
z"/>
<path fill="#613674" opacity="1.000000" stroke="none" 
	d="
M52.136971,116.382782 
	C52.464066,116.908897 52.690765,117.762840 52.816216,118.956429 
	C52.488838,118.434258 52.262707,117.572433 52.136971,116.382782 
z"/>
<path fill="#613674" opacity="1.000000" stroke="none" 
	d="
M52.489159,96.963470 
	C52.696201,97.602142 52.700905,98.520470 52.465645,99.689552 
	C52.246063,99.041252 52.266441,98.142181 52.489159,96.963470 
z"/>
<path fill="#61427E" opacity="1.000000" stroke="none" 
	d="
M101.686234,42.971348 
	C101.688095,43.214607 101.361031,43.480453 100.709244,43.773331 
	C100.708794,43.531551 101.033058,43.262741 101.686234,42.971348 
z"/>
<path fill="#65366F" opacity="1.000000" stroke="none" 
	d="
M62.361511,123.765152 
	C62.965469,122.665939 63.921333,121.767937 65.278244,120.503792 
	C66.480865,119.775711 67.282448,119.413773 68.084030,119.051834 
	C70.287910,120.084755 72.486298,122.003555 74.696487,122.017265 
	C106.149094,122.212425 137.603317,122.135506 169.057068,122.184196 
	C170.975784,122.187164 172.893707,122.692436 174.975510,123.308014 
	C174.331543,123.803352 173.523987,124.087456 172.716614,124.086922 
	C136.048874,124.062370 99.381142,124.012894 62.361511,123.765152 
z"/>
<path fill="#65366F" opacity="1.000000" stroke="none" 
	d="
M182.717453,131.065033 
	C182.604279,131.869247 182.261749,132.884521 181.645020,133.945984 
	C181.743256,133.086807 182.115677,132.181473 182.717453,131.065033 
z"/>
<path fill="#65366F" opacity="1.000000" stroke="none" 
	d="
M177.861664,140.420044 
	C177.912735,140.774841 177.722717,141.240326 177.325714,141.856506 
	C177.286011,141.515030 177.453293,141.022873 177.861664,140.420044 
z"/>
<path fill="#65366F" opacity="1.000000" stroke="none" 
	d="
M173.879074,146.350311 
	C174.028091,146.339569 173.712906,146.701126 173.628342,146.778534 
	C173.446777,146.631165 173.508865,146.466202 173.879074,146.350311 
z"/>
<path fill="#65366F" opacity="1.000000" stroke="none" 
	d="
M179.835938,137.097473 
	C179.955856,137.251373 179.846436,137.469254 179.540054,137.772736 
	C179.358200,137.605789 179.446030,137.373505 179.835938,137.097473 
z"/>
<path fill="#694782" opacity="1.000000" stroke="none" 
	d="
M168.626968,152.965118 
	C168.677414,153.139572 168.513840,153.424347 168.105194,153.778839 
	C167.961411,153.531494 168.145691,153.273788 168.626968,152.965118 
z"/>
<path fill="#543072" opacity="1.000000" stroke="none" 
	d="
M137.855392,170.885437 
	C137.782608,171.009338 137.607620,170.999390 137.169220,170.980042 
	C137.188278,170.897644 137.470734,170.824615 137.855392,170.885437 
z"/>
<path fill="#65366F" opacity="1.000000" stroke="none" 
	d="
M174.845016,145.186310 
	C174.943756,145.339188 174.811020,145.563049 174.478302,145.882690 
	C174.331467,145.717773 174.443207,145.477371 174.845016,145.186310 
z"/>
<path fill="#65366F" opacity="1.000000" stroke="none" 
	d="
M175.745834,144.044434 
	C175.913864,144.276031 175.753616,144.553802 175.281158,144.895584 
	C175.097122,144.665039 175.246658,144.375366 175.745834,144.044434 
z"/>
<path fill="#65366F" opacity="1.000000" stroke="none" 
	d="
M176.711975,142.805298 
	C176.778870,142.980911 176.627151,143.344345 176.206772,143.843536 
	C176.123184,143.650574 176.308273,143.321854 176.711975,142.805298 
z"/>
<path fill="#65366F" opacity="1.000000" stroke="none" 
	d="
M178.827118,139.094833 
	C178.954773,139.252899 178.832077,139.508759 178.475372,139.869873 
	C178.308365,139.699005 178.420166,139.438187 178.827118,139.094833 
z"/>
<path fill="#300A65" opacity="1.000000" stroke="none" 
	d="
M181.652985,89.184372 
	C182.129822,89.545753 182.320175,89.761559 182.812729,89.981033 
	C181.610199,90.382141 180.205048,90.960533 178.798965,90.962807 
	C147.544800,91.013367 116.290535,91.009308 85.036362,90.966583 
	C83.785362,90.964874 82.535027,90.481888 81.136978,89.883331 
	C83.376122,89.398170 85.762657,89.252808 88.915062,89.424850 
	C95.440926,89.576553 101.200928,89.410835 106.960930,89.245125 
	C111.678459,89.200684 116.395988,89.156242 121.875092,89.420929 
	C125.412445,89.569496 128.188232,89.408936 130.964020,89.248375 
	C132.702332,89.203941 134.440628,89.159508 136.931137,89.430939 
	C145.777039,89.581619 153.870743,89.416428 161.964447,89.251236 
	C163.053482,89.207870 164.142517,89.164505 165.880890,89.414261 
	C168.005157,89.557945 169.480103,89.408501 170.955032,89.259064 
	C171.727188,89.207832 172.499344,89.156609 173.896576,89.395401 
	C175.994659,89.551529 177.467651,89.417641 178.940643,89.283745 
	C179.716217,89.231224 180.491806,89.178703 181.652985,89.184372 
z"/>
<path fill="#613674" opacity="1.000000" stroke="none" 
	d="
M161.676086,88.957352 
	C153.870743,89.416428 145.777039,89.581619 137.361542,89.497322 
	C145.155731,89.053047 153.271729,88.858253 161.676086,88.957352 
z"/>
<path fill="#613674" opacity="1.000000" stroke="none" 
	d="
M106.672897,88.952278 
	C101.200928,89.410835 95.440926,89.576553 89.360733,89.491371 
	C94.821983,89.046791 100.603424,88.853111 106.672897,88.952278 
z"/>
<path fill="#613674" opacity="1.000000" stroke="none" 
	d="
M130.696594,88.963760 
	C128.188232,89.408936 125.412445,89.569496 122.339432,89.488678 
	C124.837852,89.057907 127.633499,88.868523 130.696594,88.963760 
z"/>
<path fill="#300A65" opacity="1.000000" stroke="none" 
	d="
M58.223537,90.342453 
	C58.246601,89.993011 58.502254,89.847885 58.834908,89.460709 
	C60.322350,89.217125 61.705151,89.166901 63.518440,89.414337 
	C63.948933,89.712006 64.046646,90.173515 64.046646,90.173523 
	C62.192356,90.314163 60.338070,90.454811 58.223537,90.342453 
z"/>
<path fill="#613674" opacity="1.000000" stroke="none" 
	d="
M178.735367,89.003441 
	C177.467651,89.417641 175.994659,89.551529 174.280243,89.456474 
	C175.535904,89.059395 177.033005,88.891266 178.735367,89.003441 
z"/>
<path fill="#613674" opacity="1.000000" stroke="none" 
	d="
M170.740356,88.985832 
	C169.480103,89.408501 168.005157,89.557945 166.285324,89.481598 
	C167.535507,89.074738 169.030609,88.893669 170.740356,88.985832 
z"/>
<path fill="#300A65" opacity="1.000000" stroke="none" 
	d="
M74.633453,89.373070 
	C73.735367,89.740517 72.456253,89.931053 71.080688,89.839111 
	C72.073631,89.436485 73.163025,89.316322 74.633453,89.373070 
z"/>
<path fill="#613674" opacity="1.000000" stroke="none" 
	d="
M64.389572,90.129776 
	C64.046646,90.173515 63.948933,89.712006 63.928642,89.477692 
	C65.144974,89.082634 66.381584,88.921890 67.774940,89.041740 
	C66.865288,89.576897 65.798889,89.831467 64.389572,90.129776 
z"/>
<path fill="#E2E2EC" opacity="1.000000" stroke="none" 
	d="
M56.385124,103.053894 
	C57.831070,102.355843 59.229927,101.211723 60.732822,101.053062 
	C63.814060,100.727768 66.951088,100.930939 70.792931,100.914597 
	C71.704994,100.619194 71.889267,100.325745 72.073540,100.032288 
	C73.272629,98.186447 74.471718,96.340599 76.372787,94.593758 
	C78.043877,94.487831 79.013000,94.282913 79.982117,94.077988 
	C82.084114,94.958267 84.712234,95.319969 86.188141,96.817360 
	C90.391899,101.082306 95.456757,101.057449 100.792625,101.004280 
	C108.700066,100.925476 116.610565,101.154503 124.717484,101.911247 
	C124.918823,103.001434 124.922440,103.432869 124.727890,104.005089 
	C124.249573,104.357651 124.110619,104.639107 123.804214,105.181793 
	C123.463638,106.306618 123.431709,107.239906 123.401550,108.427147 
	C123.446701,109.014893 123.490074,109.348686 123.394241,110.028671 
	C123.496758,111.247932 123.738480,112.121010 123.980209,112.994080 
	C123.261993,114.668457 122.543785,116.342827 121.424744,117.517754 
	C120.313980,114.700081 119.604042,112.381851 118.894112,110.063614 
	C118.496361,110.057571 118.098618,110.051529 117.068069,110.015793 
	C115.936241,110.607742 115.437202,111.229378 114.938171,111.851021 
	C113.867073,111.337143 112.795967,110.823265 111.507874,109.721489 
	C111.238205,108.458473 111.185547,107.783356 111.132881,107.108231 
	C111.132881,107.108231 110.996887,107.008980 111.498062,107.036621 
	C114.603195,106.828308 117.207161,106.592361 119.811127,106.356407 
	C119.794510,105.753372 119.777901,105.150345 119.761284,104.547310 
	C116.852135,104.547310 113.942978,104.547310 111.033829,104.547310 
	C106.904350,105.494110 109.502548,108.828476 108.608459,111.599731 
	C108.585236,112.870300 108.706390,113.515862 108.827545,114.161415 
	C108.528488,117.594948 108.413300,120.505310 104.306473,116.087540 
	C102.510979,114.156090 99.262016,113.575798 96.397903,111.749580 
	C96.538460,110.061020 96.893127,108.974991 97.389565,107.958176 
	C97.775711,107.167274 98.338524,106.462624 98.822823,105.719635 
	C97.910370,105.201889 96.973412,104.226677 96.091217,104.273926 
	C94.778008,104.344254 92.348747,105.344727 92.392830,105.589439 
	C92.790863,107.799355 93.625015,109.930725 94.331291,112.085121 
	C92.734222,117.460533 89.265938,119.002472 84.579872,116.256081 
	C82.919998,115.283272 81.497925,113.904709 79.722885,112.095139 
	C80.849998,109.447655 82.221489,107.416428 84.303406,104.333046 
	C81.222374,104.615341 79.113991,104.808517 76.657913,105.037506 
	C75.198700,105.390953 74.087181,105.708588 72.975662,106.026215 
	C72.975662,106.026215 72.798012,106.122269 72.795975,105.854645 
	C72.532738,105.384567 72.271523,105.182114 72.010307,104.979660 
	C71.546524,104.848404 71.082733,104.717140 69.907021,104.713760 
	C68.448402,106.283478 67.701714,107.725327 66.829201,109.467667 
	C66.430969,110.580551 66.158562,111.392944 65.500229,112.186783 
	C63.407837,111.781219 61.701359,111.394218 59.994881,111.007217 
	C59.619194,109.304512 59.243504,107.601814 59.329697,105.905075 
	C61.255344,105.757660 62.719116,105.604279 64.182884,105.450890 
	C64.154793,104.999641 64.126694,104.548393 64.098602,104.097145 
	C62.265598,104.178452 60.432598,104.259750 58.599598,104.341057 
	C58.205616,104.296135 57.811638,104.251213 57.098305,103.842621 
	C56.647682,103.337265 56.516403,103.195587 56.385124,103.053894 
M77.140656,97.497810 
	C76.517601,98.168137 75.894539,98.838455 75.271477,99.508774 
	C75.996803,100.020119 76.692085,100.912369 77.453003,100.972382 
	C79.867897,101.162834 82.307274,101.042816 84.737190,101.042816 
	C84.811798,100.411026 84.886406,99.779243 84.961006,99.147453 
	C82.590424,98.491501 80.219841,97.835548 77.140656,97.497810 
z"/>
<path fill="#E9E9F2" opacity="1.000000" stroke="none" 
	d="
M149.003082,111.011292 
	C148.945572,112.467896 149.314774,114.146935 148.705429,115.315872 
	C148.143753,116.393364 146.531082,116.922974 145.254669,116.930954 
	C145.009201,114.372307 144.890411,112.576622 144.771606,110.780937 
	C144.744415,110.141129 144.717224,109.501328 144.831726,108.179169 
	C144.902451,107.255226 144.831512,107.013634 144.760590,106.772034 
	C144.306015,106.222702 143.851456,105.673370 142.724350,105.053635 
	C141.908829,109.063988 141.765869,113.144730 141.622894,117.225471 
	C141.622894,117.225471 141.553375,117.450668 141.016174,117.380005 
	C139.866333,117.384628 139.253677,117.459923 138.641037,117.535217 
	C138.641037,117.535210 138.567780,117.433441 138.672012,116.998924 
	C138.709702,115.154205 138.643173,113.743996 138.576645,112.333794 
	C138.185287,112.281929 137.793945,112.230064 137.402603,112.178207 
	C136.912354,113.064339 136.422104,113.950462 135.931854,114.836594 
	C132.209976,118.732498 129.185349,116.881866 126.098015,112.964355 
	C125.733757,111.408363 125.597260,110.559059 125.880371,109.633804 
	C128.326248,110.944397 130.352493,112.330948 132.378738,113.717491 
	C132.818726,113.281380 133.258698,112.845261 133.698669,112.409142 
	C132.505447,111.119720 131.312225,109.830292 130.068207,108.485985 
	C130.668793,107.459404 131.359222,106.279251 132.049637,105.099106 
	C131.842285,104.762993 131.634949,104.426880 131.427597,104.090775 
	C130.003662,104.656342 128.579727,105.221901 127.109283,105.451958 
	C127.094223,104.216652 127.125687,103.316849 127.157143,102.417053 
	C130.870392,101.942841 134.588104,101.499626 138.293091,100.967850 
	C139.020294,100.863480 139.698334,100.416626 140.693680,99.463661 
	C141.385208,98.480774 141.782104,98.161949 142.179001,97.843132 
	C143.709961,97.784897 145.242798,97.656410 146.771118,97.697151 
	C147.572525,97.718513 148.366013,98.036575 148.861481,98.781601 
	C148.518005,100.069878 148.476151,100.797211 148.434296,101.524544 
	C148.960022,101.359634 149.485718,101.194725 150.011429,101.029816 
	C160.668137,101.031212 171.324844,101.032608 182.459976,101.505722 
	C183.036285,102.731552 183.134186,103.485664 183.232071,104.239769 
	C183.232071,104.239769 183.037689,104.618248 182.663589,104.887779 
	C182.246445,105.482025 182.203384,105.806740 182.152924,106.558029 
	C182.280350,108.668968 182.415222,110.353348 182.550079,112.037720 
	C182.517639,113.087212 182.485199,114.136703 182.225616,115.870163 
	C180.962509,116.770920 179.926529,116.987701 178.890564,117.204483 
	C178.754074,115.820381 178.617584,114.436279 178.523743,112.348679 
	C177.938477,111.239449 177.310562,110.833733 176.682632,110.428009 
	C176.571899,111.016823 176.461182,111.605644 176.350449,112.194458 
	C176.350449,112.194458 176.197464,112.286194 175.872620,112.234070 
	C174.975433,111.256165 174.403091,110.330383 173.941818,109.119354 
	C174.371872,108.321136 174.690872,107.808182 175.411865,107.223785 
	C176.630219,106.557968 177.446533,105.963577 178.262863,105.369194 
	C178.088242,104.928497 177.913605,104.487801 177.738983,104.047104 
	C174.736588,104.188667 171.734177,104.330231 168.731781,104.471794 
	C167.617981,104.468094 166.504181,104.464394 164.689331,104.712723 
	C163.686920,107.981560 163.189911,110.995628 163.147537,114.016083 
	C163.115021,116.334328 162.507950,117.463928 160.049652,116.925415 
	C159.310364,116.352989 158.615097,115.708946 157.823090,115.222336 
	C155.882126,114.029816 153.896515,112.909935 151.878357,111.099220 
	C152.433914,109.713531 153.234756,109.073959 153.595322,108.243294 
	C154.017471,107.270805 154.556488,105.515518 154.158112,105.192131 
	C153.301926,104.497116 151.806290,104.133881 150.708588,104.344543 
	C149.909393,104.497917 148.898590,105.713257 148.747574,106.587379 
	C148.502701,108.004997 148.885361,109.531029 149.003082,111.011292 
M135.657272,108.622437 
	C136.714447,107.832909 137.771606,107.043373 138.828781,106.253838 
	C138.103317,105.517570 137.377838,104.781296 136.652374,104.045029 
	C136.153305,105.371124 135.654221,106.697212 135.657272,108.622437 
z"/>
<path fill="#F2F3F7" opacity="1.000000" stroke="none" 
	d="
M65.886147,112.205330 
	C66.158562,111.392944 66.430969,110.580551 67.086685,109.539215 
	C67.933891,109.551094 68.397797,109.791931 68.861694,110.032768 
	C68.571114,112.779037 68.280533,115.525307 68.036987,118.661697 
	C67.282448,119.413773 66.480865,119.775711 65.342529,120.159592 
	C63.711056,119.444473 62.163944,118.943802 61.191250,117.905174 
	C60.179821,116.825180 59.723476,115.225327 59.275185,113.455994 
	C59.525974,113.059181 59.963127,112.946686 60.349739,112.999863 
	C62.413010,112.527817 64.880661,116.807915 65.886147,112.205330 
z"/>
<path fill="#C7C6DD" opacity="1.000000" stroke="none" 
	d="
M72.861420,106.475647 
	C74.087181,105.708588 75.198700,105.390953 76.676773,105.482681 
	C77.140999,107.966682 77.238678,110.041321 77.336365,112.115967 
	C77.293610,112.780457 77.436989,113.533401 77.171509,114.092041 
	C76.505333,115.493782 75.654205,116.807632 74.877258,118.156738 
	C74.152092,116.745636 73.020744,115.395905 72.796112,113.909180 
	C72.451851,111.630699 72.732025,109.257866 72.861420,106.475647 
z"/>
<path fill="#5F589D" opacity="1.000000" stroke="none" 
	d="
M173.830750,109.404602 
	C174.403091,110.330383 174.975433,111.256165 175.885590,112.322311 
	C174.576233,114.530655 176.633118,120.844040 170.550690,117.325356 
	C171.262634,116.295677 172.371918,115.170860 172.169083,114.832428 
	C171.301727,113.385246 170.047318,112.170044 168.080688,109.873863 
	C170.863281,109.646774 172.347015,109.525688 173.830750,109.404602 
z"/>
<path fill="#E4E4EE" opacity="1.000000" stroke="none" 
	d="
M173.941833,109.119347 
	C172.347015,109.525688 170.863281,109.646774 168.080688,109.873863 
	C170.047318,112.170044 171.301727,113.385246 172.169083,114.832428 
	C172.371918,115.170860 171.262634,116.295677 170.366196,117.044952 
	C167.249359,114.367798 164.777649,111.640999 168.137085,107.281570 
	C169.090790,106.926361 169.528427,106.878510 170.386597,106.879173 
	C172.208054,107.050194 173.608948,107.172707 175.009857,107.295219 
	C174.690872,107.808182 174.371872,108.321136 173.941833,109.119347 
z"/>
<path fill="#4B4294" opacity="1.000000" stroke="none" 
	d="
M94.637375,112.085159 
	C93.625015,109.930725 92.790863,107.799355 92.392830,105.589439 
	C92.348747,105.344727 94.778008,104.344254 96.091217,104.273926 
	C96.973412,104.226677 97.910370,105.201889 98.822823,105.719635 
	C98.338524,106.462624 97.775711,107.167274 97.389565,107.958176 
	C96.893127,108.974991 96.538460,110.061020 96.138229,111.509399 
	C95.750305,111.962769 95.346886,112.023979 94.637375,112.085159 
z"/>
<path fill="#494295" opacity="1.000000" stroke="none" 
	d="
M77.614151,112.109970 
	C77.238678,110.041321 77.140999,107.966682 77.024460,105.446869 
	C79.113991,104.808517 81.222374,104.615341 84.303406,104.333046 
	C82.221489,107.416428 80.849998,109.447655 79.515686,111.804230 
	C78.999229,112.121033 78.445587,112.112503 77.614151,112.109970 
z"/>
<path fill="#5A539B" opacity="1.000000" stroke="none" 
	d="
M160.074829,117.300308 
	C162.507950,117.463928 163.115021,116.334328 163.147537,114.016083 
	C163.189911,110.995628 163.686920,107.981560 164.374359,104.823822 
	C164.839005,108.410660 165.205948,112.161568 164.909073,115.859177 
	C164.650360,119.081306 162.883453,120.188431 160.074829,117.300308 
z"/>
<path fill="#4F4995" opacity="1.000000" stroke="none" 
	d="
M149.320312,111.026794 
	C148.885361,109.531029 148.502701,108.004997 148.747574,106.587379 
	C148.898590,105.713257 149.909393,104.497917 150.708588,104.344543 
	C151.806290,104.133881 153.301926,104.497116 154.158112,105.192131 
	C154.556488,105.515518 154.017471,107.270805 153.595322,108.243294 
	C153.234756,109.073959 152.433914,109.713531 151.683044,110.784508 
	C150.904694,111.101692 150.271118,111.071991 149.320312,111.026794 
z"/>
<path fill="#3C3489" opacity="1.000000" stroke="none" 
	d="
M69.074493,97.175095 
	C67.505432,97.038658 66.307899,96.806686 65.110359,96.574722 
	C65.672913,95.332581 66.010315,93.874313 66.900665,92.946854 
	C67.297653,92.533333 69.565842,92.994751 69.667549,93.394341 
	C69.956711,94.530350 69.567932,95.838913 69.074493,97.175095 
z"/>
<path fill="#625BA0" opacity="1.000000" stroke="none" 
	d="
M111.035385,104.976707 
	C113.942978,104.547310 116.852135,104.547310 119.761284,104.547310 
	C119.777901,105.150345 119.794510,105.753372 119.811127,106.356407 
	C117.207161,106.592361 114.603195,106.828308 111.563354,107.090591 
	C111.097305,106.546646 111.067123,105.976379 111.035385,104.976707 
z"/>
<path fill="#7067AA" opacity="1.000000" stroke="none" 
	d="
M175.411865,107.223785 
	C173.608948,107.172707 172.208054,107.050194 170.366165,106.582214 
	C169.534164,105.848289 169.143143,105.459831 168.752136,105.071373 
	C168.752136,105.071373 168.597321,104.776451 168.664551,104.624123 
	C171.734177,104.330231 174.736588,104.188667 177.738983,104.047104 
	C177.913605,104.487801 178.088242,104.928497 178.262863,105.369194 
	C177.446533,105.963577 176.630219,106.557968 175.411865,107.223785 
z"/>
<path fill="#A9A6CB" opacity="1.000000" stroke="none" 
	d="
M118.964432,110.474388 
	C119.604042,112.381851 120.313980,114.700081 121.049149,117.427216 
	C120.394501,115.519135 119.714622,113.202148 118.964432,110.474388 
z"/>
<path fill="#A5A1CA" opacity="1.000000" stroke="none" 
	d="
M141.867172,116.888351 
	C141.765869,113.144730 141.908829,109.063988 142.450211,104.934807 
	C142.602890,108.774658 142.357178,112.662941 141.867172,116.888351 
z"/>
<path fill="#A5A1CA" opacity="1.000000" stroke="none" 
	d="
M136.200943,114.994049 
	C136.422104,113.950462 136.912354,113.064339 137.402603,112.178207 
	C137.793945,112.230064 138.185287,112.281929 138.576645,112.333794 
	C138.643173,113.743996 138.709702,115.154205 138.628708,116.953590 
	C137.810791,116.612350 137.140411,115.881927 136.200943,114.994049 
z"/>
<path fill="#A7A4C6" opacity="1.000000" stroke="none" 
	d="
M58.697075,104.681564 
	C60.432598,104.259750 62.265598,104.178452 64.098602,104.097145 
	C64.126694,104.548393 64.154793,104.999641 64.182884,105.450890 
	C62.719116,105.604279 61.255344,105.757660 59.537868,105.722534 
	C59.120956,105.363365 58.957756,105.192719 58.697075,104.681564 
z"/>
<path fill="#4E489A" opacity="1.000000" stroke="none" 
	d="
M69.162170,109.788864 
	C68.397797,109.791931 67.933891,109.551094 67.212509,109.238716 
	C67.701714,107.725327 68.448402,106.283478 69.563095,104.857254 
	C69.774948,106.430237 69.618790,107.987602 69.162170,109.788864 
z"/>
<path fill="#7E77A8" opacity="1.000000" stroke="none" 
	d="
M65.500229,112.186783 
	C64.880661,116.807915 62.413010,112.527817 60.403816,112.763458 
	C60.071278,112.473885 59.984337,111.996819 59.984337,111.996819 
	C59.984337,111.996819 59.980610,111.501900 59.987743,111.254562 
	C61.701359,111.394218 63.407837,111.781219 65.500229,112.186783 
z"/>
<path fill="#A9A6CB" opacity="1.000000" stroke="none" 
	d="
M125.460754,109.709763 
	C125.597260,110.559059 125.733757,111.408363 125.891647,112.687767 
	C125.481415,113.117126 125.049805,113.116386 124.299194,113.054863 
	C123.738480,112.121010 123.496758,111.247932 123.632576,110.069504 
	C124.493668,109.746017 124.977211,109.727890 125.460754,109.709763 
z"/>
<path fill="#5F589D" opacity="1.000000" stroke="none" 
	d="
M178.934631,117.532104 
	C179.926529,116.987701 180.962509,116.770920 182.274185,116.261505 
	C182.344742,116.803246 182.253357,118.287148 181.912552,118.346832 
	C180.991287,118.508171 179.963943,118.063797 178.934631,117.532104 
z"/>
<path fill="#A9A6C9" opacity="1.000000" stroke="none" 
	d="
M142.162842,97.541519 
	C141.782104,98.161949 141.385208,98.480774 140.755737,99.110519 
	C140.265396,98.611732 140.007645,97.802017 139.749893,96.992302 
	C140.548828,97.074837 141.347763,97.157372 142.162842,97.541519 
z"/>
<path fill="#B7B6D4" opacity="1.000000" stroke="none" 
	d="
M79.778442,93.878860 
	C79.013000,94.282913 78.043877,94.487831 76.711731,94.515060 
	C77.424049,94.118156 78.499405,93.898949 79.778442,93.878860 
z"/>
<path fill="#5F589D" opacity="1.000000" stroke="none" 
	d="
M182.753662,111.713425 
	C182.415222,110.353348 182.280350,108.668968 182.338211,106.494118 
	C182.530930,106.003639 182.916992,105.930649 182.916992,105.930649 
	C182.930405,107.750145 182.943832,109.569633 182.753662,111.713425 
z"/>
<path fill="#A9A6CB" opacity="1.000000" stroke="none" 
	d="
M126.803909,102.340912 
	C127.125687,103.316849 127.094223,104.216652 126.807411,105.396027 
	C126.010056,105.071831 125.468056,104.468063 124.926056,103.864296 
	C124.922440,103.432869 124.918823,103.001434 124.979782,102.252533 
	C125.513130,102.044960 125.981895,102.154861 126.803909,102.340912 
z"/>
<path fill="#A9A5C2" opacity="1.000000" stroke="none" 
	d="
M149.951614,100.749908 
	C149.485718,101.194725 148.960022,101.359634 148.434296,101.524544 
	C148.476151,100.797211 148.518005,100.069878 148.819962,99.165565 
	C149.350647,99.482391 149.621216,99.976189 149.951614,100.749908 
z"/>
<path fill="#A5A1CA" opacity="1.000000" stroke="none" 
	d="
M144.534760,111.076447 
	C144.890411,112.576622 145.009201,114.372307 145.039703,116.610886 
	C144.733566,115.159843 144.515732,113.265900 144.534760,111.076447 
z"/>
<path fill="#5F589D" opacity="1.000000" stroke="none" 
	d="
M176.598999,112.209763 
	C176.461182,111.605644 176.571899,111.016823 176.682632,110.428009 
	C177.310562,110.833733 177.938477,111.239449 178.445343,111.937195 
	C177.832031,112.227837 177.339798,112.226456 176.598999,112.209763 
z"/>
<path fill="#A9A6CB" opacity="1.000000" stroke="none" 
	d="
M115.254379,111.813217 
	C115.437202,111.229378 115.936241,110.607742 116.769997,110.029678 
	C116.593346,110.640640 116.081970,111.208031 115.254379,111.813217 
z"/>
<path fill="#A5A1CA" opacity="1.000000" stroke="none" 
	d="
M138.730865,117.771729 
	C139.253677,117.459923 139.866333,117.384628 140.924438,117.453964 
	C140.520172,117.735146 139.670425,117.871696 138.730865,117.771729 
z"/>
<path fill="#625BA0" opacity="1.000000" stroke="none" 
	d="
M110.833160,107.224808 
	C111.185547,107.783356 111.238205,108.458473 111.277359,109.473198 
	C111.020378,108.988991 110.776909,108.165184 110.833160,107.224808 
z"/>
<path fill="#A9A5C2" opacity="1.000000" stroke="none" 
	d="
M183.551941,104.063400 
	C183.134186,103.485664 183.036285,102.731552 182.913254,101.597855 
	C183.216003,102.107849 183.543915,102.997437 183.551941,104.063400 
z"/>
<path fill="#5A539B" opacity="1.000000" stroke="none" 
	d="
M168.692688,105.322815 
	C169.143143,105.459831 169.534164,105.848289 169.945618,106.533707 
	C169.528427,106.878510 169.090790,106.926361 168.321732,106.978783 
	C168.204636,106.513657 168.418945,106.043961 168.692688,105.322815 
z"/>
<path fill="#625BA0" opacity="1.000000" stroke="none" 
	d="
M108.960831,113.781334 
	C108.706390,113.515862 108.585236,112.870300 108.642151,112.030998 
	C108.911514,112.358582 109.002815,112.879921 108.960831,113.781334 
z"/>
<path fill="#403793" opacity="1.000000" stroke="none" 
	d="
M56.280525,103.205070 
	C56.516403,103.195587 56.647682,103.337265 56.809639,103.767036 
	C56.618855,103.822166 56.397388,103.589203 56.280525,103.205070 
z"/>
<path fill="#3C3489" opacity="1.000000" stroke="none" 
	d="
M71.839844,100.057755 
	C71.889267,100.325745 71.704994,100.619194 71.248901,100.826355 
	C71.074165,100.413277 71.283852,100.194328 71.839844,100.057755 
z"/>
<path fill="#4E489A" opacity="1.000000" stroke="none" 
	d="
M72.011017,105.207855 
	C72.271523,105.182114 72.532738,105.384567 72.695824,105.841782 
	C72.288429,105.977470 72.093102,105.757309 72.011017,105.207855 
z"/>
<path fill="#A9A5C2" opacity="1.000000" stroke="none" 
	d="
M182.923981,105.670441 
	C182.916992,105.930649 182.530930,106.003639 182.345642,106.067551 
	C182.203384,105.806740 182.246445,105.482025 182.516113,105.041092 
	C182.805466,105.086655 182.868210,105.248444 182.923981,105.670441 
z"/>
<path fill="#A5A1CA" opacity="1.000000" stroke="none" 
	d="
M144.570297,106.911194 
	C144.831512,107.013634 144.902451,107.255226 144.871750,107.860901 
	C144.640060,107.833435 144.510025,107.441895 144.570297,106.911194 
z"/>
<path fill="#3F368C" opacity="1.000000" stroke="none" 
	d="
M59.766373,112.135788 
	C59.984337,111.996819 60.071278,112.473885 60.017204,112.710281 
	C59.963127,112.946686 59.525974,113.059181 59.307739,113.116821 
	C59.242470,112.874557 59.395439,112.574654 59.766373,112.135788 
z"/>
<path fill="#6A64A1" opacity="1.000000" stroke="none" 
	d="
M124.727890,104.005089 
	C125.468056,104.468063 126.010056,105.071831 126.853928,105.731537 
	C128.579727,105.221901 130.003662,104.656342 131.427597,104.090775 
	C131.634949,104.426880 131.842285,104.762993 132.049637,105.099106 
	C131.359222,106.279251 130.668793,107.459404 130.068207,108.485985 
	C131.312225,109.830292 132.505447,111.119720 133.698669,112.409142 
	C133.258698,112.845261 132.818726,113.281380 132.378738,113.717491 
	C130.352493,112.330948 128.326248,110.944397 125.880371,109.633804 
	C124.977211,109.727890 124.493668,109.746017 123.771790,109.723312 
	C123.490074,109.348686 123.446701,109.014893 123.584213,108.206223 
	C123.881027,106.817642 123.996948,105.903954 124.112869,104.990257 
	C124.110619,104.639107 124.249573,104.357651 124.727890,104.005089 
z"/>
<path fill="#4C458F" opacity="1.000000" stroke="none" 
	d="
M77.494957,97.338699 
	C80.219841,97.835548 82.590424,98.491501 84.961006,99.147453 
	C84.886406,99.779243 84.811798,100.411026 84.737190,101.042816 
	C82.307274,101.042816 79.867897,101.162834 77.453003,100.972382 
	C76.692085,100.912369 75.996803,100.020119 75.271477,99.508774 
	C75.894539,98.838455 76.517601,98.168137 77.494957,97.338699 
z"/>
<path fill="#A9A6CB" opacity="1.000000" stroke="none" 
	d="
M123.804214,105.181793 
	C123.996948,105.903954 123.881027,106.817642 123.582443,107.952271 
	C123.431709,107.239906 123.463638,106.306618 123.804214,105.181793 
z"/>
<path fill="#A9A6C9" opacity="1.000000" stroke="none" 
	d="
M135.406219,108.322876 
	C135.654221,106.697212 136.153305,105.371124 136.652374,104.045029 
	C137.377838,104.781296 138.103317,105.517570 138.828781,106.253838 
	C137.771606,107.043373 136.714447,107.832909 135.406219,108.322876 
z"/>
</svg>